<svg class=" " viewBox="0 0 1600 800"><path d="M4,425.484C4,425.484,26.279,402.596,32.619,387.879C39.601,371.67,41.598,352.316,41.919,331.313C42.32,305.044,36.984,269.804,30.077,242.424C23.817,217.606,4,173.516,4,173.516" stroke="#71717a" stroke-width="2" fill="none" stroke-linecap="round" stroke-miterlimit="4"></path><path d="M1596,624.688C1596,624.688,1570.064,613.003,1562.121,606.061C1556.392,601.055,1550.556,595.544,1550.161,589.899C1549.765,584.24,1554.147,576.225,1559.799,572.143C1567.425,566.636,1596,565.652,1596,565.652" stroke="#71717a" stroke-width="2" fill="none" stroke-linecap="round" stroke-miterlimit="4"></path><path d="M4,472.766C4,472.766,35.493,461.337,49.122,452.525C62.644,443.783,76.255,432.667,85.519,420.202C94.379,408.28,100.228,394.231,104.228,379.798C108.415,364.693,109.68,348.62,109.442,331.313C109.166,311.296,105.792,287.231,100.686,266.667C95.778,246.902,88.402,227.852,79.9,210.101C71.663,192.903,62.473,177.193,50.76,161.616C38.092,144.77,5.739,113.131,5.739,113.131" stroke="#71717a" stroke-width="2" fill="none" stroke-linecap="round" stroke-miterlimit="4"></path><path d="M1596,672.167C1596,672.167,1514.36,638.971,1488.959,622.222C1472.682,611.489,1461.113,601.718,1452.792,589.899C1445.735,579.876,1438.881,567.394,1439.68,557.576C1440.401,548.717,1447.241,539.51,1454.47,533.333C1462.572,526.412,1472.907,522.798,1487.437,519.741C1512.744,514.415,1595.58,517.172,1595.58,517.172" stroke="#71717a" stroke-width="2" fill="none" stroke-linecap="round" stroke-miterlimit="4"></path><path d="M4,504.264C4,504.264,57.955,490.938,80.402,480.098C100.426,470.429,119.201,458.987,133.264,444.444C146.585,430.668,156.488,414.544,163.65,395.96C171.788,374.844,176.51,346.767,176.575,323.232C176.637,301.055,172.521,278.865,165.456,258.586C158.453,238.483,147.534,220.826,134.548,202.02C119.623,180.407,99.84,157.292,79.141,137.374C57.735,116.774,7.767,80.808,7.767,80.808" stroke="#71717a" stroke-width="2" fill="none" stroke-linecap="round" stroke-miterlimit="4"></path><path d="M1596,703.266C1596,703.266,1539.243,683.481,1511.558,670.289C1482.884,656.626,1451.293,639.675,1427.023,622.222C1406.037,607.13,1385.161,590.502,1372.832,573.737C1363.2,560.638,1354.07,545.966,1354.438,533.333C1354.772,521.871,1362.465,509.139,1371.493,501.01C1381.726,491.797,1397.642,487.779,1415.075,483.562C1439.057,477.761,1473.7,475.411,1503.518,475.236C1533.993,475.057,1596,482.848,1596,482.848" stroke="#71717a" stroke-width="2" fill="none" stroke-linecap="round" stroke-miterlimit="4"></path><path d="M1596,235.299C1596,235.299,1574.014,219.268,1567.927,210.101C1562.907,202.542,1559.701,194.548,1559.54,185.859C1559.355,175.886,1563.737,163.433,1569.396,153.535C1575.501,142.857,1596,124.56,1596,124.56" stroke="#71717a" stroke-width="2" fill="none" stroke-linecap="round" stroke-miterlimit="4"></path><path d="M4,531.776C4,531.776,81.114,517.531,112.563,504.212C139.647,492.741,163.918,479.014,183.27,460.606C202.078,442.715,216.062,420.774,227.744,395.96C240.986,367.832,254.991,325.808,255.356,298.99C255.613,280.096,250.857,265.815,242.966,250.505C234.079,233.263,219.308,219.481,201.995,202.02C177.803,177.621,140.646,145.79,108.005,121.212C75.947,97.074,8.04,55.621,8.04,55.621" stroke="#71717a" stroke-width="2" fill="none" stroke-linecap="round" stroke-miterlimit="4"></path><path d="M698.7,266.667C703.402,275.947,717.114,282.393,734.486,290.909C771.059,308.838,859.667,337.506,916.583,350.48C964.867,361.487,1023.546,369.464,1053.266,368.64C1067.747,368.239,1076.833,367.668,1085.427,362.538C1093.628,357.643,1102.943,348.179,1104.22,339.394C1105.604,329.876,1097.841,316.314,1090.812,307.071C1083.358,297.268,1074.553,290.91,1059.814,282.828C1032.53,267.867,977.026,248.117,932.663,237.932C886.56,227.348,824.983,221.352,787.94,221.667C764.815,221.864,747.462,224.081,731.658,228.963C719.058,232.855,704.355,237.715,699.497,245.312C695.759,251.158,695.393,260.141,698.7,266.667" stroke="#71717a" stroke-width="2" fill="none" stroke-linecap="round" stroke-miterlimit="4"></path><path d="M1596,730.621C1596,730.621,1505.109,695.548,1463.317,674.238C1423.277,653.821,1382.915,631.087,1349.904,606.061C1320.358,583.661,1289.555,557.929,1272.786,533.333C1260.068,514.681,1248.09,491.77,1250.053,476.768C1251.516,465.582,1259.973,456.206,1270.352,449.636C1284.796,440.492,1308.788,439.348,1334.673,436.58C1373.113,432.47,1433.821,432.555,1479.397,434.732C1520.425,436.692,1596,447.401,1596,447.401" stroke="#71717a" stroke-width="2" fill="none" stroke-linecap="round" stroke-miterlimit="4"></path><path d="M1596,292.054C1596,292.054,1529.345,264.961,1511.558,251.022C1501.14,242.859,1495.411,235.004,1490.965,226.263C1487.048,218.561,1485.061,210.125,1484.846,202.02C1484.631,193.963,1486.303,186.12,1489.611,177.778C1493.724,167.408,1499.364,157.153,1509.919,145.455C1527.776,125.663,1596,78.147,1596,78.147" stroke="#71717a" stroke-width="2" fill="none" stroke-linecap="round" stroke-miterlimit="4"></path><path d="M4,558.807C4,558.807,80.466,548.502,112.563,539.138C139.583,531.255,162.535,522.542,184.925,509.519C207.466,496.407,226.91,481.357,247.285,460.606C272.701,434.721,299.732,386.841,321.608,362.193C336.319,345.618,346.91,334.001,361.809,323.534C376.443,313.253,392.288,304.229,410.05,299.695C429.478,294.736,445.316,294.579,474.372,297.065C537.541,302.469,674.627,335.521,771.859,360.957C867.531,385.986,988.757,421.298,1053.266,448.065C1089.111,462.938,1100.705,470.723,1133.668,490.582C1191.18,525.232,1284.032,601.466,1362.48,646.465C1438.287,689.949,1596,757.414,1596,757.414" stroke="#71717a" stroke-width="2" fill="none" stroke-linecap="round" stroke-miterlimit="4"></path><path d="M1596,380.175C1596,380.175,1585.797,373.663,1586.195,371.717C1586.549,369.983,1596,368.596,1596,368.596" stroke="#71717a" stroke-width="2" fill="none" stroke-linecap="round" stroke-miterlimit="4"></path><path d="M1596,42.942C1596,42.942,1498.607,104.551,1469.44,129.293C1451.826,144.235,1441.959,154.896,1430.844,169.697C1419.713,184.521,1407.957,203.182,1402.719,218.182C1398.72,229.634,1395.96,240.067,1397.956,250.505C1400.09,261.664,1405.436,271.198,1416.644,282.828C1439.246,306.283,1548.314,350.798,1545.195,363.636C1543.017,372.605,1498.629,370.448,1471.357,369.903C1437.319,369.223,1397.012,368.551,1356.819,355.556C1305.918,339.098,1255.661,292.152,1194.425,266.667C1122.401,236.691,1024.35,213.444,948.865,193.939C885.355,177.529,823.397,159.404,771.859,154.768C732.712,151.247,708.308,152.204,667.337,158.781C606.024,168.624,498.773,216.567,442.211,223.514C409.063,227.586,390.302,226.658,361.809,220.655C326.838,213.287,292.989,197.149,249.246,175.729C182.38,142.986,5.034,32.323,5.034,32.323" stroke="#71717a" stroke-width="2" fill="none" stroke-linecap="round" stroke-miterlimit="4"></path><path d="M1596,9.221C1596,9.221,1512.883,59.987,1470.784,88.889C1425.825,119.755,1369.483,169.79,1334.673,189.512C1315.333,200.47,1303.466,205.246,1286.432,209.589C1268.705,214.109,1251.779,215.707,1230.151,215.516C1200.647,215.254,1163.514,209.796,1125.628,202.632C1079.266,193.865,1019.654,177.422,972.864,163.439C932.226,151.295,899.26,140.362,860.302,124.926C816.553,107.592,753.77,66.741,723.618,63.094C709.538,61.391,704.742,64.529,691.457,69.082C666.692,77.571,623.81,106.856,590.426,121.212C559.53,134.498,528.449,145.884,498.492,153.309C471.117,160.095,444.956,164.219,418.09,165.465C391.354,166.705,366.381,166.141,337.688,160.848C302.942,154.438,267.91,142.718,225.126,125.103C163.636,99.786,8.04,13.828,8.04,13.828" stroke="#71717a" stroke-width="2" fill="none" stroke-linecap="round" stroke-miterlimit="4"></path><path d="M4,588.404C4,588.404,84.936,581.356,120.603,572.681C152.302,564.971,181.858,554.827,208.116,541.414C232.347,529.037,250.317,515.404,273.367,496.645C303.332,472.259,342.12,425.027,369.849,404.038C387.783,390.464,399.263,382.825,418.09,375.714C440.87,367.11,469.807,362.072,498.492,360.138C530.925,357.951,563.444,360.989,603.015,366.069C656.133,372.889,726.837,386.763,787.94,403.304C850.14,420.142,900.842,435.53,972.864,466.653C1082.671,514.104,1260.127,620.828,1374.672,678.788C1458.944,721.429,1596,786.007,1596,786.007" stroke="#71717a" stroke-width="2" fill="none" stroke-linecap="round" stroke-miterlimit="4"></path><path d="M323.927,796C323.927,796,268.878,775.028,241.206,768.517C214.496,762.232,187.663,758.277,160.804,757.07C134.061,755.868,106.325,757.434,80.402,761.223C55.47,764.866,8.04,778.825,8.04,778.825" stroke="#71717a" stroke-width="2" fill="none" stroke-linecap="round" stroke-miterlimit="4"></path><path d="M1549.063,4C1549.063,4,1370.411,124.659,1318.593,149.633C1294.367,161.308,1281.967,164.89,1262.312,169.204C1241.842,173.696,1223.072,176.028,1197.99,175.492C1162.428,174.733,1112.006,167.428,1069.347,157.342C1025.254,146.917,974.332,130.965,937.78,113.131C908.677,98.933,879.608,79.376,864.361,64.646C855.495,56.082,851.754,49.719,847.122,40.404C841.876,29.853,835.672,4,835.672,4" stroke="#71717a" stroke-width="2" fill="none" stroke-linecap="round" stroke-miterlimit="4"></path><path d="M594.585,4C594.585,4,590.507,34.955,582.38,48.485C573.105,63.926,556.34,78.407,538.693,89.732C518.58,102.64,491.536,112.474,466.332,119.008C440.655,125.664,412.045,128.541,385.93,128.937C361.195,129.313,337.497,126.596,313.568,122.226C289.249,117.785,271.147,113.219,241.206,102.294C188.193,82.951,27.423,4,27.423,4" stroke="#71717a" stroke-width="2" fill="none" stroke-linecap="round" stroke-miterlimit="4"></path><path d="M4,628.359C4,628.359,84.785,626.901,120.603,620.094C152.503,614.031,181.761,604.755,209.045,592.263C235.181,580.297,254.993,566.639,281.407,547.516C317.359,521.488,368.317,468.608,402.01,446.051C423.391,431.737,437.787,423.87,458.291,416.717C480.387,409.009,505.204,404.803,530.653,402.738C558.538,400.476,587.003,401.899,619.095,405.299C658.116,409.432,704.33,417.68,747.739,428.993C793.975,441.043,829.803,453.467,888.241,476.768C990.677,517.612,1182.208,608.79,1302.513,667.292C1397.102,713.289,1553.296,796,1553.296,796" stroke="#71717a" stroke-width="2" fill="none" stroke-linecap="round" stroke-miterlimit="4"></path><path d="M428.854,796C428.854,796,339.27,754.243,297.487,739.789C261.127,727.212,226.621,717.161,192.965,711.787C162.514,706.925,134.483,704.562,104.523,706.925C72.896,709.42,8.04,727.726,8.04,727.726" stroke="#71717a" stroke-width="2" fill="none" stroke-linecap="round" stroke-miterlimit="4"></path><path d="M574.635,796C574.635,796,514.682,779.636,482.412,767.071C444.736,752.401,394.461,728.044,363.131,711.111C341.707,699.532,323.414,691.134,310.684,678.788C300.593,669.001,290.953,656.817,289.372,646.465C288.097,638.109,291.973,630.88,296.34,622.222C302.546,609.92,313.226,597.287,327.342,581.818C350.283,556.679,394.213,512.506,426.131,490.548C450.859,473.535,472.46,462.693,498.492,454.754C525.86,446.408,556.788,443.348,586.935,442.953C618.372,442.541,650.659,446.769,683.417,453.263C718.668,460.251,751.221,470.04,791.247,484.848C844.547,504.569,903.968,538.383,972.864,566.779C1061.023,603.113,1186.062,639.902,1278.392,681.115C1358.902,717.052,1498.223,796,1498.223,796" stroke="#71717a" stroke-width="2" fill="none" stroke-linecap="round" stroke-miterlimit="4"></path><path d="M535.651,4C535.651,4,526.69,29.492,517.975,40.404C508.123,52.741,492.653,64.348,477.597,72.727C462.127,81.336,444.508,86.864,426.131,90.967C406.136,95.432,386.523,98.221,361.809,97.342C327.805,96.132,284.306,89.18,241.206,76.652C187.728,61.106,67.383,4,67.383,4" stroke="#71717a" stroke-width="2" fill="none" stroke-linecap="round" stroke-miterlimit="4"></path><path d="M1501.158,4C1501.158,4,1445.04,43.413,1415.075,61.346C1384.258,79.788,1347.978,100.134,1318.593,112.92C1295.428,123.001,1275.982,130.067,1254.271,134.949C1233.088,139.712,1213.556,142.21,1189.95,142.208C1161.038,142.205,1125.726,138.449,1093.467,131.302C1059.446,123.764,1020.013,111.119,991.075,96.97C967.274,85.332,946.238,72.893,930.21,56.566C915.405,41.484,896.7,4,896.7,4" stroke="#71717a" stroke-width="2" fill="none" stroke-linecap="round" stroke-miterlimit="4"></path><path d="M483.107,4C483.107,4,469.232,24.583,460.748,32.323C452.795,39.579,446.232,44.643,434.171,49.608C413.813,57.988,376.524,67.019,345.729,67.938C312.426,68.932,277.47,61.999,241.206,52.708C199.545,42.034,110.588,4,110.588,4" stroke="#71717a" stroke-width="2" fill="none" stroke-linecap="round" stroke-miterlimit="4"></path><path d="M815.647,796C815.647,796,765.132,770.829,731.658,760.997C685.702,747.499,608.384,742.87,562.814,730.883C530.691,722.434,504.189,712.909,482.412,702.629C466.242,694.996,453.925,687.932,442.211,678.303C430.995,669.084,418.94,657.069,413.2,646.465C408.824,638.379,406.93,630.884,406.925,622.222C406.92,612.222,409.573,601.104,415.255,589.899C423.041,574.545,438.978,555.149,454.978,541.414C471.795,526.977,492.989,514.45,514.573,506.148C536.86,497.575,562.074,492.878,586.935,491.474C612.927,490.007,640.846,493.079,667.337,498.509C694.462,504.069,716.805,512.482,747.739,524.891C792.634,542.901,849.725,580.907,908.543,601.764C974.371,625.105,1065.307,636.963,1125.628,653.873C1169.526,666.178,1200.506,675.632,1238.191,690.057C1277.836,705.233,1321.31,724.606,1357.67,743.434C1389.931,760.14,1446.268,796,1446.268,796" stroke="#71717a" stroke-width="2" fill="none" stroke-linecap="round" stroke-miterlimit="4"></path><path d="M1455.252,4C1455.252,4,1407.449,36.302,1382.915,49.823C1359.188,62.9,1334.292,74.91,1310.553,84.134C1288.792,92.589,1267.891,99.544,1246.231,103.918C1225.002,108.206,1203.975,110.493,1181.91,110.382C1158.493,110.264,1133.399,107.575,1109.548,102.374C1085.145,97.052,1058.386,88.355,1037.186,78.46C1018.859,69.906,1002.992,60.814,988.754,48.485C974.379,36.038,951.457,4,951.457,4" stroke="#71717a" stroke-width="2" fill="none" stroke-linecap="round" stroke-miterlimit="4"></path><path d="M427.29,4C427.29,4,401.899,23.405,385.93,29.271C367.421,36.069,343.71,38.923,321.608,39.357C298.228,39.816,274.298,36.154,249.246,30.905C221.093,25.007,161.261,4,161.261,4" stroke="#71717a" stroke-width="2" fill="none" stroke-linecap="round" stroke-miterlimit="4"></path><path d="M918.903,796C918.903,796,886.736,758.182,879.216,743.434C874.551,734.286,872.078,726.488,871.813,719.192C871.598,713.292,871.646,707.964,875.491,703.03C881.903,694.803,900.063,686.87,916.583,682.133C938.442,675.866,968.419,675.269,996.985,675.041C1029.534,674.781,1066.862,677.421,1101.508,682.582C1136.548,687.803,1172.253,696.032,1206.03,706.367C1239.218,716.521,1271.412,728.909,1302.513,743.799C1333.767,758.763,1393.062,796,1393.062,796" stroke="#71717a" stroke-width="2" fill="none" stroke-linecap="round" stroke-miterlimit="4"></path><path d="M578.894,580.11C591.727,575.46,611.498,574.301,627.136,577.115C643.259,580.017,664.196,588.63,674.092,597.98C681.299,604.79,688.241,615.165,686.554,622.222C684.679,630.064,670.746,638.215,659.296,641.956C644.489,646.793,620.133,645.978,603.015,642.233C587.305,638.795,568.571,630.078,560.036,622.222C554.689,617.3,551.005,610.565,550.814,606.061C550.681,602.945,552.196,600.864,554.554,597.98C558.898,592.669,568.752,583.786,578.894,580.11" stroke="#71717a" stroke-width="2" fill="none" stroke-linecap="round" stroke-miterlimit="4"></path><path d="M1407.035,4.104C1407.035,4.104,1332.169,46.956,1294.472,59.305C1259.78,70.67,1219.516,76.71,1189.95,78.025C1168.383,78.984,1151.554,76.372,1133.668,73.039C1116.81,69.899,1101.158,65.636,1085.427,59.165C1068.963,52.392,1050.866,42.751,1037.186,32.776C1025.26,24.08,1006.881,4,1006.881,4" stroke="#71717a" stroke-width="2" fill="none" stroke-linecap="round" stroke-miterlimit="4"></path><path d="M345.729,4.272C345.729,4.272,314.198,10.172,297.487,10.346C279.46,10.535,241.206,4.452,241.206,4.452" stroke="#71717a" stroke-width="2" fill="none" stroke-linecap="round" stroke-miterlimit="4"></path><path d="M1004.621,796C1004.621,796,996.298,776.562,997.343,767.677C998.355,759.074,1003.308,749.892,1010.141,743.434C1018.275,735.748,1031.985,730.893,1045.455,727.273C1061.675,722.914,1079.354,721.05,1101.508,721.884C1134.168,723.113,1183.623,730.375,1222.111,742.718C1260.631,755.071,1332.522,796,1332.522,796" stroke="#71717a" stroke-width="2" fill="none" stroke-linecap="round" stroke-miterlimit="4"></path><path d="M1350.735,4C1350.735,4,1303.565,26.247,1278.392,32.962C1252.695,39.816,1224.074,44.484,1197.99,44.337C1173.224,44.197,1147.673,40.481,1125.628,33.265C1105.132,26.557,1069.523,4,1069.523,4" stroke="#71717a" stroke-width="2" fill="none" stroke-linecap="round" stroke-miterlimit="4"></path><path d="M1113.049,796C1113.049,796,1120.168,786.851,1125.979,783.838C1133.837,779.765,1144.715,777.202,1157.789,777.333C1178.923,777.545,1240.558,796,1240.558,796" stroke="#71717a" stroke-width="2" fill="none" stroke-linecap="round" stroke-miterlimit="4"></path><path d="M1254.271,4.078L1170.948,4" stroke="#71717a" stroke-width="2" fill="none" stroke-linecap="round" stroke-miterlimit="4"></path></svg>