<svg width="210" height="27" viewBox="0 0 210 27" fill="none" xmlns="http://www.w3.org/2000/svg">
<path d="M9.036 26L0.792 0.799998H6.84L14.004 23.12H10.98L18.468 0.799998H23.868L31.068 23.12H28.152L35.496 0.799998H41.076L32.832 26H26.568L20.196 6.416H21.852L15.3 26H9.036ZM61.6118 0.799998H67.4438V26H61.6118V0.799998ZM50.1638 26H44.3318V0.799998H50.1638V26ZM62.0438 15.668H49.7318V10.736H62.0438V15.668ZM70.094 26L81.326 0.799998H87.086L98.354 26H92.234L83.018 3.752H85.322L76.07 26H70.094ZM75.71 20.6L77.258 16.172H90.218L91.802 20.6H75.71ZM104.923 26V5.552H96.8588V0.799998H118.819V5.552H110.755V26H104.923ZM132.152 26V0.799998H137.984V26H132.152ZM154.16 26V0.799998H165.608C168.344 0.799998 170.756 1.328 172.844 2.384C174.932 3.416 176.564 4.868 177.74 6.74C178.916 8.612 179.504 10.832 179.504 13.4C179.504 15.944 178.916 18.164 177.74 20.06C176.564 21.932 174.932 23.396 172.844 24.452C170.756 25.484 168.344 26 165.608 26H154.16ZM159.992 21.212H165.32C167 21.212 168.452 20.9 169.676 20.276C170.924 19.628 171.884 18.716 172.556 17.54C173.252 16.364 173.6 14.984 173.6 13.4C173.6 11.792 173.252 10.412 172.556 9.26C171.884 8.084 170.924 7.184 169.676 6.56C168.452 5.912 167 5.588 165.32 5.588H159.992V21.212ZM196.142 26.432C194.15 26.432 192.302 26.108 190.598 25.46C188.918 24.812 187.454 23.9 186.206 22.724C184.982 21.548 184.022 20.168 183.326 18.584C182.654 17 182.318 15.272 182.318 13.4C182.318 11.528 182.654 9.8 183.326 8.216C184.022 6.632 184.994 5.252 186.242 4.076C187.49 2.9 188.954 1.988 190.634 1.34C192.314 0.691999 194.138 0.368 196.106 0.368C198.098 0.368 199.922 0.691999 201.578 1.34C203.258 1.988 204.71 2.9 205.934 4.076C207.182 5.252 208.154 6.632 208.85 8.216C209.546 9.776 209.894 11.504 209.894 13.4C209.894 15.272 209.546 17.012 208.85 18.62C208.154 20.204 207.182 21.584 205.934 22.76C204.71 23.912 203.258 24.812 201.578 25.46C199.922 26.108 198.11 26.432 196.142 26.432ZM196.106 21.464C197.234 21.464 198.266 21.272 199.202 20.888C200.162 20.504 201.002 19.952 201.722 19.232C202.442 18.512 202.994 17.66 203.378 16.676C203.786 15.692 203.99 14.6 203.99 13.4C203.99 12.2 203.786 11.108 203.378 10.124C202.994 9.14 202.442 8.288 201.722 7.568C201.026 6.848 200.198 6.296 199.238 5.912C198.278 5.528 197.234 5.336 196.106 5.336C194.978 5.336 193.934 5.528 192.974 5.912C192.038 6.296 191.21 6.848 190.49 7.568C189.77 8.288 189.206 9.14 188.798 10.124C188.414 11.108 188.222 12.2 188.222 13.4C188.222 14.576 188.414 15.668 188.798 16.676C189.206 17.66 189.758 18.512 190.454 19.232C191.174 19.952 192.014 20.504 192.974 20.888C193.934 21.272 194.978 21.464 196.106 21.464Z" fill="white"/>
</svg>
